<?xml version="1.0" encoding="utf-8"?>
<!-- Generator: Adobe Illustrator 21.1.0, SVG Export Plug-In . SVG Version: 6.00 Build 0)  -->
<svg version="1.1" id="Camada_1" xmlns="http://www.w3.org/2000/svg" xmlns:xlink="http://www.w3.org/1999/xlink" x="0px" y="0px"
	 viewBox="0 0 428.7 134.2" style="enable-background:new 0 0 428.7 134.2;" xml:space="preserve">
<style type="text/css">
	.st0{fill:#FFFFFF;}
</style>
<g>
	<g>
		<path class="st0" d="M181.6,45h8.3l0.9,10.1h0.5c3.1-3.3,6.4-6.1,10-8.3c3.6-2.2,7.7-3.3,12.3-3.3c7.1,0,12.2,2,15.5,6
			s4.9,10,4.9,17.9v36.8h-10V68.8c0-5.6-1.1-9.8-3.2-12.5c-2.1-2.7-5.6-4.1-10.5-4.1c-1.8,0-3.4,0.2-4.9,0.7c-1.5,0.4-3,1.1-4.4,2
			c-1.5,0.9-3,2-4.5,3.4c-1.5,1.3-3.2,2.9-4.9,4.7v41.3h-10V45z"/>
		<path class="st0" d="M243.8,74.8c0-4.9,0.9-9.2,2.6-13.1c1.7-3.9,4-7.1,6.8-9.8c2.8-2.7,6-4.7,9.6-6.2c3.6-1.4,7.3-2.1,11.2-2.1
			c4.2,0,8,0.7,11.3,2c3.3,1.3,6.2,3.2,8.5,5.7c2.3,2.4,4.1,5.4,5.3,8.8c1.2,3.4,1.8,7.2,1.8,11.3c0,1.1,0,2.1-0.1,3.1
			c0,1-0.1,1.9-0.3,2.6h-46.3c0.1,3.2,0.7,6,1.9,8.5c1.2,2.5,2.8,4.7,4.8,6.5c2,1.8,4.3,3.2,7.1,4.1c2.7,1,5.7,1.5,9,1.5
			c3.5,0,6.7-0.5,9.6-1.5c2.9-1,5.7-2.3,8.5-4l3.5,6.6c-2.9,1.9-6.3,3.5-10,4.9c-3.7,1.4-8,2.1-12.8,2.1c-4.4,0-8.5-0.7-12.4-2.1
			c-3.9-1.4-7.2-3.5-10.1-6.1c-2.9-2.6-5.2-5.9-6.8-9.7C244.7,84,243.8,79.6,243.8,74.8z M291.6,69.9c0-5.9-1.5-10.5-4.6-13.6
			c-3.1-3.2-7.4-4.8-12.9-4.8c-2.4,0-4.8,0.4-7,1.2c-2.2,0.8-4.2,2-6,3.6c-1.8,1.6-3.3,3.5-4.5,5.8c-1.2,2.3-2,4.9-2.4,7.8H291.6z"
			/>
		<path class="st0" d="M327.8,73.6L307,45h11.1l9.4,13c1.1,1.6,2.2,3.3,3.4,5c1.2,1.7,2.4,3.4,3.6,5h0.5c1.1-1.6,2.3-3.3,3.4-5.1
			c1.1-1.8,2.2-3.5,3.3-5.1l8.9-12.8h10.6L340,74.4l22.7,29.9h-11l-10.4-13.6c-1.2-1.7-2.5-3.5-3.8-5.4c-1.3-1.9-2.7-3.7-4-5.4h-0.5
			c-1.2,1.8-2.4,3.6-3.7,5.3c-1.2,1.7-2.4,3.6-3.7,5.4l-9.7,13.6h-10.7L327.8,73.6z"/>
		<path class="st0" d="M382.8,53.2h-16.7v-7.6l17.1-0.6l1.3-16.6h8.3V45H422v8.2h-29.1v28.1c0,2.7,0.2,5,0.7,7
			c0.5,2,1.3,3.7,2.4,5.1c1.1,1.4,2.7,2.4,4.6,3.1c2,0.7,4.3,1,7.2,1c2.8,0,5.4-0.2,7.7-0.7c2.3-0.5,4.5-1.1,6.6-2l2.2,7.3
			c-2.7,1-5.6,1.8-8.9,2.5c-3.3,0.7-6.5,1-9.7,1c-4.3,0-7.9-0.6-10.8-1.8c-2.9-1.2-5.3-2.8-7-5c-1.7-2.2-3-4.7-3.8-7.7
			c-0.8-3-1.2-6.3-1.2-10V53.2z"/>
	</g>
	<path class="st0" d="M91.8,71.2l-49.3,33.5V94.2l39.8-26.8v-0.5L42.4,40V29.5L91.8,63V71.2z"/>
	<path class="st0" d="M134.2,134.2H0V0h134.2V134.2z M7.9,126.3h118.4V7.9H7.9V126.3z"/>
</g>
</svg>
